#!OML:ASF I:\Random Stuff\random\construction\7_22_03\Session 2\subj1.ASF
:FULLY-SPECIFIED
:DEGREES
334
root -2.50418 17.8492 0.301138 6.28425 66.9658 -5.94173
lowerback 3.35721 -1.49654 0.704153
upperback -2.02671 -1.93814 0.557134
thorax -3.97388 -0.973225 0.310337
lowerneck -21.8036 9.31805 9.94705
upperneck 32.7823 12.3525 -4.86401
head 16.3858 5.84221 -1.16208
rclavicle 5.38209e-014 2.26615e-014
rhumerus -25.486 50.5161 -100.158
rradius 92.0052
rwrist -34.0665
rhand -25.4266 10.1795
rfingers 7.12502
rthumb 1.09955 -19.7974
lclavicle 5.38209e-014 2.26615e-014
lhumerus 13.8163 -4.70992 76.8743
lradius 47.288
lwrist 65.342
lhand -16.5106 68.3266
lfingers 7.12502
lthumb 9.7075 -98.0829
rfemur -17.1857 46.1864 7.4449
rtibia -1.45113e-014
rfoot 7.09869 -33.7144
rtoes -17.851
lfemur -13.1886 1.11025 -15.4571
ltibia 19.4164
lfoot -16.6392 21.6176
ltoes -17.9437
335
root -2.4962 17.8518 0.293052 6.46143 66.7979 -5.93678
lowerback 3.41152 -1.52557 0.763781
upperback -1.99476 -1.97502 0.52418
thorax -3.9748 -0.993706 0.246613
lowerneck -21.8387 9.29936 9.93748
upperneck 32.8533 12.3313 -4.86486
head 16.4263 5.8299 -1.16401
rclavicle 2.09221e-014 2.38542e-015
rhumerus -25.5797 50.5664 -100.375
rradius 91.8726
rwrist -33.6078
rhand -25.1504 9.75283
rfingers 7.12502
rthumb 1.36627 -20.2225
lclavicle 2.09221e-014 2.38542e-015
lhumerus 13.7457 -4.68059 77.042
lradius 47.5069
lwrist 65.9515
lhand -16.3964 68.2941
lfingers 7.12502
lthumb 9.81773 -98.0452
rfemur -17.5214 46.2999 7.16283
rtibia 4.37326e-015
rfoot 7.24913 -33.6764
rtoes -18.1045
lfemur -13.4178 1.56832 -15.5255
ltibia 19.5562
lfoot -16.5609 21.3775
ltoes -18.1498
336
root -2.48908 17.8534 0.286754 6.48452 66.6733 -6.03173
lowerback 3.5344 -1.56734 0.794576
upperback -1.96178 -2.02739 0.54761
thorax -4.0106 -1.02024 0.260258
lowerneck -21.9061 9.2574 9.79853
upperneck 32.9378 12.3113 -4.83071
head 16.4661 5.80641 -1.12877
rclavicle -3.18055e-015 -1.59028e-014
rhumerus -25.7009 50.7049 -100.53
rradius 91.7822
rwrist -33.384
rhand -25.0449 9.46155
rfingers 7.12502
rthumb 1.46824 -20.5131
lclavicle -3.18055e-015 -1.59028e-014
lhumerus 13.6869 -4.50199 77.3494
lradius 47.6467
lwrist 66.0977
lhand -16.1738 68.4017
lfingers 7.12502
lthumb 10.0325 -98.1426
rfemur -17.7441 46.3928 7.01309
rtibia -1.19271e-015
rfoot 7.35777 -33.6604
rtoes -18.1934
lfemur -13.5801 1.9907 -15.5438
ltibia 19.6817
lfoot -16.4977 21.1065
ltoes -18.3771
337
root -2.48065 17.8549 0.28206 6.4705 66.6079 -6.14086
lowerback 3.51467 -1.60787 0.721826
upperback -1.82771 -2.08323 0.648578
thorax -3.85425 -1.04472 0.405329
lowerneck -22.0798 9.18963 9.50076
upperneck 32.9887 12.2644 -4.71553
head 16.489 5.75968 -1.03578
rclavicle 3.47873e-015 1.74931e-014
rhumerus -25.5933 50.945 -100.36
rradius 91.7664
rwrist -33.3711
rhand -25.0489 9.0691
rfingers 7.12502
rthumb 1.46432 -20.9056
lclavicle 3.47873e-015 1.74931e-014
lhumerus 13.7504 -4.20878 77.787
lradius 47.8203
lwrist 66.0783
lhand -15.9988 68.5202
lfingers 7.12502
lthumb 10.2013 -98.2528
rfemur -17.895 46.4378 6.92837
rtibia -2.14687e-014
rfoot 7.49684 -33.6354
rtoes -18.4452
lfemur -13.7104 2.2695 -15.5409
ltibia 19.7915
lfoot -16.4327 20.8936
ltoes -18.8568
338
root -2.47129 17.8575 0.277598 6.47543 66.5685 -6.266
lowerback 3.53165 -1.63279 0.716318
upperback -1.76822 -2.11527 0.701812
thorax -3.80004 -1.05983 0.464657
lowerneck -22.1662 9.1299 9.3483
upperneck 33.0389 12.2095 -4.66444
head 16.5102 5.72202 -0.998516
rclavicle -1.59028e-014 8.74653e-015
rhumerus -25.623 51.0604 -100.32
rradius 91.7834
rwrist -33.5564
rhand -24.9195 8.71455
rfingers 7.12502
rthumb 1.58927 -21.2593
lclavicle -1.59028e-014 8.74653e-015
lhumerus 13.7781 -4.00529 78.1681
lradius 47.9995
lwrist 66.1717
lhand -16.1855 68.8316
lfingers 7.12502
lthumb 10.0212 -98.573
rfemur -18.0724 46.4515 6.82857
rtibia 7.7526e-015
rfoot 7.66504 -33.5814
rtoes -18.7648
lfemur -13.8599 2.42439 -15.5226
ltibia 19.8762
lfoot -16.3923 20.806
ltoes -19.5587
339
root -2.46279 17.8605 0.273033 6.40565 66.5267 -6.48877
lowerback 3.57425 -1.67351 0.801147
upperback -1.75663 -2.16434 0.715659
thorax -3.81475 -1.08614 0.436015
lowerneck -22.079 9.12226 9.44253
upperneck 32.9974 12.2453 -4.86842
head 16.5007 5.72178 -1.09731
rclavicle -4.16454e-014 1.15295e-014
rhumerus -25.7147 51.1471 -100.449
rradius 91.742
rwrist -33.8068
rhand -24.8548 8.57915
rfingers 7.12502
rthumb 1.65185 -21.3942
lclavicle -4.16454e-014 1.15295e-014
lhumerus 13.7226 -3.8317 78.4058
lradius 48.216
lwrist 66.3571
lhand -16.5719 69.2043
lfingers 7.12502
lthumb 9.64836 -98.9634
rfemur -18.2718 46.4706 6.75974
rtibia -5.96354e-015
rfoot 7.7903 -33.5463
rtoes -19.0472
lfemur -14.0025 2.54701 -15.463
ltibia 19.9182
lfoot -16.3978 20.7442
ltoes -19.7248
340
root -2.4557 17.8627 0.267982 6.443 66.5095 -6.55589
lowerback 3.62974 -1.74426 0.854997
upperback -1.72759 -2.25628 0.699779
thorax -3.81884 -1.13345 0.39719
lowerneck -22.0226 9.12672 9.52137
upperneck 32.9789 12.2933 -5.04303
head 16.5071 5.72753 -1.17677
rclavicle 2.75317e-014 6.75868e-015
rhumerus -25.7522 51.2541 -100.592
rradius 91.6689
rwrist -34.0722
rhand -24.8452 8.49198
rfingers 7.12502
rthumb 1.66108 -21.4813
lclavicle 2.75317e-014 6.75868e-015
lhumerus 13.6472 -3.59108 78.6158
lradius 48.4445
lwrist 66.2641
lhand -16.872 69.5172
lfingers 7.12502
lthumb 9.35885 -99.2894
rfemur -18.4106 46.466 6.6721
rtibia 5.96354e-016
rfoot 7.83193 -33.5501
rtoes -19.2622
lfemur -14.0998 2.64201 -15.4725
ltibia 19.9232
lfoot -16.2252 20.6876
ltoes -20.1271
341
root -2.44942 17.866 0.264727 6.56015 66.4879 -6.49817
lowerback 3.7101 -1.77146 0.826599
upperback -1.67974 -2.29362 0.70153
thorax -3.81356 -1.15129 0.419176
lowerneck -22.0232 9.10116 9.47643
upperneck 32.9675 12.3045 -5.12865
head 16.5068 5.71394 -1.20432
rclavicle -1.12313e-014 1.15295e-014
rhumerus -25.7198 51.2358 -100.567
rradius 91.6491
rwrist -34.3404
rhand -24.7272 8.37592
rfingers 7.12502
rthumb 1.77508 -21.5964
lclavicle -1.12313e-014 1.15295e-014
lhumerus 13.5735 -3.51785 78.8823
lradius 48.7003
lwrist 65.9669
lhand -17.1692 69.7496
lfingers 7.12502
lthumb 9.07207 -99.5345
rfemur -18.4949 46.4661 6.56199
rtibia -5.96354e-015
rfoot 7.70309 -33.5779
rtoes -19.0174
lfemur -14.1417 2.68235 -15.525
ltibia 19.8892
lfoot -16.1954 20.7282
ltoes -20.2685
342
root -2.4416 17.8699 0.263238 6.6194 66.445 -6.51058
lowerback 3.74339 -1.7657 0.764817
upperback -1.62659 -2.28746 0.752746
thorax -3.77278 -1.146 0.505886
lowerneck -21.9906 9.07942 9.39788
upperneck 32.8936 12.3419 -5.24285
head 16.4699 5.70441 -1.2346
rclavicle -1.14301e-015 -2.38542e-015
rhumerus -25.6556 51.1821 -100.474
rradius 91.623
rwrist -34.4776
rhand -24.7453 8.23167
rfingers 7.12502
rthumb 1.75757 -21.7408
lclavicle -1.14301e-015 -2.38542e-015
lhumerus 13.4243 -3.63552 79.1385
lradius 49.1031
lwrist 65.6532
lhand -17.5777 69.8412
lfingers 7.12502
lthumb 8.67786 -99.6429
rfemur -18.5923 46.4894 6.46874
rtibia 5.00937e-014
rfoot 7.58187 -33.6002
rtoes -18.7414
lfemur -14.157 2.65212 -15.54
ltibia 19.8198
lfoot -16.2905 20.8453
ltoes -19.8586
343
root -2.43206 17.8725 0.261189 6.65732 66.3973 -6.55647
lowerback 3.74593 -1.77149 0.743946
upperback -1.59541 -2.2954 0.785115
thorax -3.73977 -1.14904 0.550759
lowerneck -21.9604 9.06498 9.427
upperneck 32.8812 12.3899 -5.44091
head 16.4835 5.70069 -1.315
rclavicle 5.81942e-014 4.77083e-015
rhumerus -25.6464 51.1783 -100.518
rradius 91.5522
rwrist -34.5335
rhand -25.0111 8.06354
rfingers 7.12502
rthumb 1.50084 -21.9109
lclavicle 5.81942e-014 4.77083e-015
lhumerus 13.1948 -3.79 79.3368
lradius 49.6599
lwrist 65.294
lhand -18.0364 69.9884
lfingers 7.12502
lthumb 8.23518 -99.8079
rfemur -18.698 46.5175 6.38123
rtibia -2.78299e-014
rfoot 7.50559 -33.6341
rtoes -18.5964
lfemur -14.159 2.58373 -15.5419
ltibia 19.7332
lfoot -16.2003 20.9729
ltoes -19.5875
344
root -2.42186 17.874 0.258904 6.63881 66.3609 -6.64812
lowerback 3.757 -1.76333 0.792451
upperback -1.5686 -2.2819 0.789162
thorax -3.72007 -1.14342 0.526664
lowerneck -21.9311 9.05061 9.54386
upperneck 32.9083 12.4419 -5.71844
head 16.5338 5.69853 -1.4426
rclavicle 5.4467e-014 3.18055e-015
rhumerus -25.6288 51.1472 -100.559
rradius 91.5186
rwrist -34.7713
rhand -25.2925 7.87821
rfingers 7.12502
rthumb 1.22911 -22.098
lclavicle 5.4467e-014 3.18055e-015
lhumerus 12.9595 -4.03602 79.491
lradius 50.2743
lwrist 65.1152
lhand -18.4058 70.3307
lfingers 7.12502
lthumb 7.87872 -100.164
rfemur -18.7719 46.5435 6.34403
rtibia -2.10712e-014
rfoot 7.52524 -33.6302
rtoes -18.6538
lfemur -14.1282 2.48033 -15.5157
ltibia 19.6216
lfoot -16.2733 21.0852
ltoes -18.8632
345
root -2.41021 17.8754 0.256161 6.70307 66.3261 -6.64947
lowerback 3.74003 -1.74483 0.849275
upperback -1.53461 -2.25526 0.776716
thorax -3.67808 -1.13168 0.478906
lowerneck -21.9611 9.02845 9.5541
upperneck 32.9397 12.4742 -5.88568
head 16.5776 5.68857 -1.50799
rclavicle 4.57205e-014 -3.97569e-016
rhumerus -25.6308 51.0984 -100.571
rradius 91.5712
rwrist -35.2974
rhand -25.4871 7.4563
rfingers 7.12502
rthumb 1.04116 -22.5209
lclavicle 4.57205e-014 -3.97569e-016
lhumerus 12.756 -4.27265 79.6636
lradius 50.8607
lwrist 65.1458
lhand -18.7133 70.7558
lfingers 7.12502
lthumb 7.58191 -100.6
rfemur -18.8481 46.5627 6.26755
rtibia 1.03368e-014
rfoot 7.58451 -33.5944
rtoes -18.8514
lfemur -14.0779 2.32241 -15.5291
ltibia 19.478
lfoot -16.4593 21.1899
ltoes -18.2911
346
root -2.39911 17.8777 0.253527 7.0202 66.2952 -6.38882
lowerback 3.70331 -1.72767 0.840107
upperback -1.51128 -2.23569 0.721286
thorax -3.63506 -1.1225 0.42389
lowerneck -22.081 8.98441 9.47281
upperneck 33.0567 12.4492 -5.89622
head 16.6557 5.66232 -1.50051
rclavicle -8.94531e-015 4.77083e-015
rhumerus -25.6617 51.0223 -100.638
rradius 91.6528
rwrist -35.9236
rhand -25.7355 6.98918
rfingers 7.12502
rthumb 0.801199 -22.9891
lclavicle -8.94531e-015 4.77083e-015
lhumerus 12.5949 -4.40162 79.8859
lradius 51.4029
lwrist 65.1792
lhand -18.9992 71.0983
lfingers 7.12502
lthumb 7.30591 -100.952
rfemur -18.94 46.5582 6.05989
rtibia 1.98785e-014
rfoot 7.511 -33.6355
rtoes -18.7924
lfemur -14.0409 2.1703 -15.6664
ltibia 19.3245
lfoot -16.3392 21.364
ltoes -18.8638
347
root -2.38944 17.8804 0.25203 7.37783 66.2761 -6.07666
lowerback 3.65724 -1.69864 0.772428
upperback -1.48829 -2.20303 0.675402
thorax -3.58445 -1.10533 0.410227
lowerneck -22.1782 8.94081 9.35832
upperneck 33.1865 12.416 -5.83864
head 16.7245 5.63916 -1.46081
rclavicle 2.48481e-016 -8.74653e-015
rhumerus -25.6761 50.9669 -100.704
rradius 91.7065
rwrist -36.2867
rhand -26.1429 6.76729
rfingers 7.12502
rthumb 0.407727 -23.2121
lclavicle 2.48481e-016 -8.74653e-015
lhumerus 12.4379 -4.51042 80.1284
lradius 51.9621
lwrist 65.1404
lhand -19.3139 71.3522
lfingers 7.12502
lthumb 7.00212 -101.216
rfemur -19.0133 46.5421 5.85025
rtibia 1.78906e-014
rfoot 7.42211 -33.7069
rtoes -18.6797
lfemur -14 2.05515 -15.8235
ltibia 19.1773
lfoot -16.1483 21.5694
ltoes -19.3424
